# xmcd
#
# Track frame offsets:
#	150
#	9132
#	25728
#	38649
#	57888
#	72850
#	89376
#	118827
#	132100
#	142628
#	160286
#	175130
#	185624
#	201307
#	215325
#	227027
#
# Disc length: 3081 seconds
#
# Revision: 0
# Processed by: cddbd v1.5.2PL0 Copyright (c) Steve Scherf et al.
# Submitted via: dBpowerAMP V4.0
#
DISCID=d00c0710
DTITLE=Ray Charles - The Wonderful World Of
DYEAR=1988
DGENRE=Blues
TTITLE0=Hit the Road Jack
TTITLE1=Georgia On My Mind
TTITLE2=Unchain My Heart
TTITLE3=I Can´t Stop Loving You
TTITLE4=You Don´t Know Me
TTITLE5=Your Cheatin´ Heart
TTITLE6=What´d I Say
TTITLE7=I Got A Woman
TTITLE8=I´m Moving On
TTITLE9=Ruby
TTITLE10=Born To Loose
TTITLE11=Swanee River Rock (Talkin´ About That River)
TTITLE12=(Night Time Is) The Right Time
TTITLE13=A Fool For Love
TTITLE14=This Little Girl Of Mine
TTITLE15=Drown In My Own Tears
EXTD=Ray CHarles - The Wonderfull World Of Ray Charles
EXTT0=
EXTT1=
EXTT2=
EXTT3=
EXTT4=
EXTT5=
EXTT6=
EXTT7=
EXTT8=
EXTT9=
EXTT10=
EXTT11=
EXTT12=
EXTT13=
EXTT14=
EXTT15=
PLAYORDER=
